<svg width="66" height="21" viewBox="0 0 66 21" fill="none" xmlns="http://www.w3.org/2000/svg">
<path d="M0 6.10352e-05H3.30174L6.14124 17.7397H6.4384L10.6646 6.10352e-05H13.4051L8.61755 20.8017H3.46683L0 6.10352e-05ZM24.8291 6.10352e-05L21.3623 20.8017H16.2116L11.424 6.10352e-05H14.1645L18.3907 17.7397H18.6879L21.5274 6.10352e-05H24.8291Z" fill="#F1E8DF"/>
<path d="M28.1229 20.8017L29.5096 6.10352e-05H34.066L38.6554 15.5764H38.8865L43.476 6.10352e-05H48.0324L49.4191 20.8017H46.1504L45.0938 4.39337H44.8957L40.1082 20.8017H37.4338L32.6462 4.39337H32.4481L31.3916 20.8017H28.1229Z" fill="#F1E8DF"/>
<path d="M54.8644 20.8017V6.10352e-05H58.1661V18.0393H65.7601V20.8017H54.8644Z" fill="#F1E8DF"/>
</svg>
