<svg width="195" height="56" viewBox="0 0 195 56" fill="none" xmlns="http://www.w3.org/2000/svg">
<path d="M194.531 46.2429V55.3429H193.192V46.2429H194.531Z" fill="#F1E8DF"/>
<path d="M185.507 51.9629V55.3429H184.194V46.2429H187.561C189.992 46.2429 190.72 47.9329 190.72 49.0899C190.72 50.4419 189.784 51.4299 188.692 51.8069L190.356 55.3429H188.926L187.34 51.9629H185.507ZM187.678 50.7799C189.069 50.7539 189.381 49.6229 189.381 49.0899C189.381 48.5049 189.069 47.3999 187.626 47.3999H185.507V50.7799H187.678Z" fill="#F1E8DF"/>
<path d="M180.653 55.356L179.639 52.938H176.376L175.375 55.356H173.919L177.962 46.165H178.053L182.109 55.356H180.653ZM178.014 49.012L176.857 51.781H179.158L178.014 49.012Z" fill="#F1E8DF"/>
<path d="M169.85 55.3429V47.4129H167.211V46.2429H173.854V47.4129H171.189V55.3429H169.85Z" fill="#F1E8DF"/>
<path d="M160.6 48.5051C160.6 50.5981 165.709 49.4021 165.709 52.9771C165.709 54.3681 164.331 55.4471 162.485 55.4471C161.133 55.4471 160.197 55.1741 159.183 54.6411L159.69 53.5881C160.496 53.9781 161.393 54.2641 162.381 54.2641C163.395 54.2641 164.318 53.7571 164.318 52.9641C164.318 50.4941 159.261 51.8721 159.261 48.6091C159.261 47.0361 160.444 46.1001 162.095 46.1001C162.628 46.1001 163.863 46.1911 165.215 46.8281L164.721 47.9331C164.11 47.6861 162.992 47.3481 162.394 47.3481C161.432 47.3481 160.665 47.5431 160.6 48.5051Z" fill="#F1E8DF"/>
<path d="M156.217 51.4429H152.577V54.1729H157.231V55.3429H151.251V46.2429H157.231V47.4129H152.577V50.2729H156.217V51.4429Z" fill="#F1E8DF"/>
<path d="M145.307 46.2429V54.1729H148.778V55.3429H143.968V46.2429H145.307Z" fill="#F1E8DF"/>
<path d="M131.996 51.9629V55.3429H130.683V46.2429H134.05C136.481 46.2429 137.209 47.9329 137.209 49.0899C137.209 50.4419 136.273 51.4299 135.181 51.8069L136.845 55.3429H135.415L133.829 51.9629H131.996ZM134.167 50.7799C135.558 50.7539 135.87 49.6229 135.87 49.0899C135.87 48.5049 135.558 47.3999 134.115 47.3999H131.996V50.7799H134.167Z" fill="#F1E8DF"/>
<path d="M127.141 55.356L126.127 52.938H122.864L121.863 55.356H120.407L124.45 46.165H124.541L128.597 55.356H127.141ZM124.502 49.012L123.345 51.781H125.646L124.502 49.012Z" fill="#F1E8DF"/>
<path d="M113.596 55.3429H112.257V46.2429H113.596V50.1819L117.34 46.2429H118.939L118.965 46.3339L114.818 50.6499L119.238 55.2649L119.199 55.3429H117.613L113.596 51.0789V55.3429Z" fill="#F1E8DF"/>
<path d="M108.771 51.4429H105.131V54.1729H109.785V55.3429H103.805V46.2429H109.785V47.4129H105.131V50.2729H108.771V51.4429Z" fill="#F1E8DF"/>
<path d="M95.5919 55.46H95.5139L92.7449 49.636L90.8209 55.343H89.3779L92.5239 46.165H92.6279L95.5529 52.756L98.4779 46.165H98.5819L101.728 55.343H100.285L98.3609 49.636L95.5919 55.46Z" fill="#F1E8DF"/>
<path d="M82.4589 55.356L81.4449 52.938H78.1819L77.1809 55.356H75.7249L79.7679 46.165H79.8589L83.9149 55.356H82.4589ZM79.8199 49.012L78.6629 51.781H80.9639L79.8199 49.012Z" fill="#F1E8DF"/>
<path d="M72.3111 52.2621V46.2431H73.65V55.3951L73.5461 55.4471L67.6311 49.2721H67.618V55.3431H66.2791V46.2041L66.396 46.1521L72.3111 52.2621Z" fill="#F1E8DF"/>
<path d="M62.7377 55.356L61.7237 52.938H58.4607L57.4597 55.356H56.0037L60.0467 46.165H60.1377L64.1937 55.356H62.7377ZM60.0987 49.012L58.9417 51.781H61.2427L60.0987 49.012Z" fill="#F1E8DF"/>
<path d="M47.8966 51.4429V55.3429H46.5576V46.2429H47.8966V50.2729H52.5896V46.2429H53.9286V55.3429H52.5896V51.4429H47.8966Z" fill="#F1E8DF"/>
<path d="M43.0162 55.356L42.0022 52.938H38.7392L37.7382 55.356H36.2822L40.3252 46.165H40.4162L44.4722 55.356H43.0162ZM40.3772 49.012L39.2202 51.781H41.5212L40.3772 49.012Z" fill="#F1E8DF"/>
<path d="M32.9661 52.509L35.6051 46.243H37.0611L33.0311 55.434H32.9011L30.2621 49.376L27.6361 55.434H27.5061L23.4761 46.243H24.9321L27.5711 52.509L30.1841 46.178H30.3011L32.9661 52.509Z" fill="#F1E8DF"/>
<path d="M15.6655 54.5501C15.6655 54.0691 16.0295 53.7051 16.5105 53.7051C16.9785 53.7051 17.3685 54.0691 17.3685 54.5501C17.3685 55.0181 16.9785 55.4081 16.5105 55.4081C16.0295 55.4081 15.6655 55.0181 15.6655 54.5501Z" fill="#F1E8DF"/>
<path d="M10.9469 55.3429V47.4129H8.30786V46.2429H14.9509V47.4129H12.2859V55.3429H10.9469Z" fill="#F1E8DF"/>
<path d="M1.339 51.9629V55.3429H0V46.2429H3.393C5.824 46.2429 6.552 47.9329 6.552 49.0899C6.552 50.8189 5.018 51.9629 3.575 51.9629H1.339ZM3.51 50.7799C4.901 50.7539 5.213 49.6229 5.213 49.0899C5.213 48.5049 4.901 47.3999 3.458 47.3999H1.339V50.7799H3.51Z" fill="#F1E8DF"/>
<path d="M152.327 0.649902V30.1499H167V35.6499H145.332V0.649902H152.327Z" fill="#F1E8DF"/>
<path d="M111.164 36.1H110.766L99.1077 15.4L91.4871 35.65H84.0371L98.1409 0.449951H98.6527L110.994 23.05L123.278 0.449951H123.789L137.95 35.65H130.5L122.823 15.4L111.164 36.1Z" fill="#F1E8DF"/>
<path d="M68.6053 36.1L57.6862 14.2L46.824 36.1H46.0847L28 0.650001H35.7343L46.4828 22.9L57.4019 0H57.9706L68.9465 22.9L79.695 0.650001H87.4293L69.3446 36.1H68.6053Z" fill="#F1E8DF"/>
</svg>
