<svg class="w-[275px] lg:w-[450px]" width="275" height="22" viewBox="0 0 405 22" fill="none" xmlns="http://www.w3.org/2000/svg">
<path d="M404.97 4.21362V17.825H402.967V4.21362H404.97Z" fill="#F1E8DF"/>
<path d="M391.472 12.7693V17.825H389.509V4.21362H394.545C398.181 4.21362 399.27 6.74144 399.27 8.47203C399.27 10.4943 397.87 11.9721 396.236 12.536L398.725 17.825H396.586L394.214 12.7693H391.472ZM394.72 10.9999C396.8 10.961 397.267 9.26927 397.267 8.47203C397.267 7.59702 396.8 5.94421 394.642 5.94421H391.472V10.9999H394.72Z" fill="#F1E8DF"/>
<path d="M384.212 17.8444L382.695 14.2277H377.814L376.317 17.8444H374.139L380.187 4.09692H380.323L386.39 17.8444H384.212ZM380.265 8.35533L378.534 12.4971H381.976L380.265 8.35533Z" fill="#F1E8DF"/>
<path d="M368.053 17.825V5.96365H364.106V4.21362H374.042V5.96365H370.056V17.825H368.053Z" fill="#F1E8DF"/>
<path d="M354.218 7.59728C354.218 10.7279 361.859 8.93897 361.859 14.2863C361.859 16.3669 359.798 17.9808 357.037 17.9808C355.015 17.9808 353.615 17.5725 352.098 16.7752L352.856 15.2002C354.062 15.7835 355.404 16.2113 356.882 16.2113C358.398 16.2113 359.779 15.453 359.779 14.2668C359.779 10.5723 352.215 12.6335 352.215 7.75284C352.215 5.40002 353.984 4 356.454 4C357.251 4 359.098 4.13611 361.121 5.08891L360.382 6.74171C359.468 6.37226 357.795 5.8667 356.901 5.8667C355.462 5.8667 354.315 6.15837 354.218 7.59728Z" fill="#F1E8DF"/>
<path d="M347.663 11.9915H342.218V16.0749H349.179V17.825H340.235V4.21362H349.179V5.96365H342.218V10.2415H347.663V11.9915Z" fill="#F1E8DF"/>
<path d="M331.343 4.21362V16.0749H336.535V17.825H329.34V4.21362H331.343Z" fill="#F1E8DF"/>
<path d="M311.433 12.7693V17.825H309.469V4.21362H314.505C318.142 4.21362 319.231 6.74144 319.231 8.47203C319.231 10.4943 317.83 11.9721 316.197 12.536L318.686 17.825H316.547L314.175 12.7693H311.433ZM314.68 10.9999C316.761 10.961 317.228 9.26927 317.228 8.47203C317.228 7.59702 316.761 5.94421 314.603 5.94421H311.433V10.9999H314.68Z" fill="#F1E8DF"/>
<path d="M304.172 17.8444L302.655 14.2277H297.775L296.277 17.8444H294.1L300.147 4.09692H300.283L306.35 17.8444H304.172ZM300.225 8.35533L298.494 12.4971H301.936L300.225 8.35533Z" fill="#F1E8DF"/>
<path d="M283.911 17.825H281.908V4.21362H283.911V10.1054L289.511 4.21362H291.903L291.941 4.34974L285.739 10.8054L292.35 17.7083L292.291 17.825H289.919L283.911 11.4471V17.825Z" fill="#F1E8DF"/>
<path d="M276.694 11.9915H271.25V16.0749H278.211V17.825H269.266V4.21362H278.211V5.96365H271.25V10.2415H276.694V11.9915Z" fill="#F1E8DF"/>
<path d="M256.982 17.9999H256.865L252.723 9.28868L249.846 17.8249H247.687L252.393 4.09692H252.548L256.924 13.9554L261.299 4.09692H261.454L266.16 17.8249H264.001L261.124 9.28868L256.982 17.9999Z" fill="#F1E8DF"/>
<path d="M237.338 17.8444L235.821 14.2277H230.941L229.443 17.8444H227.266L233.313 4.09692H233.449L239.516 17.8444H237.338ZM233.391 8.35533L231.66 12.4971H235.102L233.391 8.35533Z" fill="#F1E8DF"/>
<path d="M222.159 13.2167V4.21375H224.162V17.9029L224.007 17.9807L215.159 8.74438H215.14V17.8251H213.137V4.15542L213.312 4.07764L222.159 13.2167Z" fill="#F1E8DF"/>
<path d="M207.84 17.8444L206.323 14.2277H201.443L199.945 17.8444H197.768L203.815 4.09692H203.951L210.018 17.8444H207.84ZM203.893 8.35533L202.162 12.4971H205.604L203.893 8.35533Z" fill="#F1E8DF"/>
<path d="M185.641 11.9915V17.825H183.639V4.21362H185.641V10.2415H192.661V4.21362H194.664V17.825H192.661V11.9915H185.641Z" fill="#F1E8DF"/>
<path d="M178.342 17.8444L176.825 14.2277H171.944L170.447 17.8444H168.269L174.317 4.09692H174.453L180.52 17.8444H178.342ZM174.394 8.35533L172.664 12.4971H176.106L174.394 8.35533Z" fill="#F1E8DF"/>
<path d="M163.309 13.5861L167.256 4.21368H169.434L163.406 17.9611H163.212L159.264 8.89987L155.337 17.9611H155.142L149.114 4.21368H151.292L155.239 13.5861L159.148 4.11646H159.323L163.309 13.5861Z" fill="#F1E8DF"/>
<path d="M137.432 16.6389C137.432 15.9195 137.976 15.375 138.696 15.375C139.396 15.375 139.979 15.9195 139.979 16.6389C139.979 17.3389 139.396 17.9223 138.696 17.9223C137.976 17.9223 137.432 17.3389 137.432 16.6389Z" fill="#F1E8DF"/>
<path d="M130.374 17.825V5.96365H126.427V4.21362H136.363V5.96365H132.377V17.825H130.374Z" fill="#F1E8DF"/>
<path d="M116.003 12.7693V17.825H114V4.21362H119.075C122.711 4.21362 123.8 6.74144 123.8 8.47203C123.8 11.0582 121.506 12.7693 119.347 12.7693H116.003ZM119.25 10.9999C121.331 10.961 121.797 9.26927 121.797 8.47203C121.797 7.59702 121.331 5.94421 119.172 5.94421H116.003V10.9999H119.25Z" fill="#F1E8DF"/>
<path d="M75.1332 0.392822V18.2202H84.0001V21.5439H70.906V0.392822H75.1332Z" fill="#F1E8DF"/>
<path d="M50.2576 21.8159H50.017L42.9717 9.30652L38.3664 21.5439H33.8643L42.3874 0.271973H42.6967L50.1545 13.9295L57.5779 0.271973H57.8872L66.4448 21.5439H61.9426L57.303 9.30652L50.2576 21.8159Z" fill="#F1E8DF"/>
<path d="M24.5385 21.8159L17.9399 8.58131L11.3757 21.8159H10.9289L0 0.392807H4.674L11.1695 13.8389L17.7681 0H18.1117L24.7447 13.8389L31.2402 0.392807H35.9142L24.9853 21.8159H24.5385Z" fill="#F1E8DF"/>
</svg>
