<svg width="273" height="18" viewBox="0 0 273 18" fill="none" xmlns="http://www.w3.org/2000/svg">
<path d="M272.673 5.88447V17.2424H269.138V5.88447H272.673ZM270.917 4.70853C270.297 4.70853 269.786 4.53327 269.391 4.1771C269.006 3.80962 268.811 3.36299 268.811 2.83156C268.811 2.30012 269.006 1.84219 269.391 1.48602C269.792 1.11854 270.297 0.937622 270.917 0.937622C271.537 0.937622 272.019 1.11854 272.403 1.48602C272.805 1.83654 273 2.28882 273 2.83156C273 3.3743 272.799 3.80962 272.403 4.1771C272.019 4.52762 271.519 4.70853 270.917 4.70853ZM263.836 7.7784C264.249 7.15651 264.765 6.66465 265.385 6.31413C266.005 5.94665 266.693 5.76574 267.451 5.76574V9.45185H266.481C265.597 9.45185 264.938 9.64407 264.496 10.0229C264.054 10.3903 263.836 11.0405 263.836 11.979V17.2481H260.301V5.89012H263.836V7.78405V7.7784ZM254.218 11.5663C254.218 10.6956 253.971 10.0115 253.472 9.50838C252.99 9.00522 252.399 8.75646 251.693 8.75646C250.987 8.75646 250.391 9.00522 249.897 9.50838C249.415 9.99459 249.174 10.673 249.174 11.5437C249.174 12.4143 249.415 13.104 249.897 13.6185C250.391 14.1217 250.993 14.3704 251.693 14.3704C252.393 14.3704 252.99 14.1217 253.472 13.6185C253.966 13.1153 254.218 12.4313 254.218 11.5606V11.5663ZM245.582 11.5437C245.582 10.379 245.8 9.35008 246.242 8.46813C246.695 7.58618 247.309 6.90776 248.078 6.43286C248.847 5.95796 249.708 5.72051 250.66 5.72051C251.475 5.72051 252.181 5.88447 252.789 6.20672C253.409 6.53462 253.885 6.95864 254.212 7.49007V5.88447H257.747V17.2424H254.212V15.6368C253.868 16.1682 253.386 16.5923 252.766 16.9202C252.158 17.2481 251.452 17.4064 250.637 17.4064C249.702 17.4064 248.847 17.1689 248.078 16.694C247.309 16.2078 246.695 15.5181 246.242 14.6361C245.8 13.7429 245.582 12.7083 245.582 11.5437ZM244.314 14.2913V17.2424H242.518C241.238 17.2424 240.239 16.9371 239.522 16.3265C238.805 15.7047 238.449 14.6927 238.449 13.2963V8.77908H237.043V5.89012H238.449V3.11989H241.984V5.89012H244.296V8.77908H241.984V13.3358C241.984 13.675 242.064 13.9181 242.231 14.0708C242.397 14.2234 242.673 14.2969 243.057 14.2969H244.319L244.314 14.2913ZM231.064 17.4064C230.059 17.4064 229.164 17.2368 228.378 16.8976C227.592 16.5583 226.972 16.0948 226.519 15.5124C226.066 14.9132 225.807 14.2517 225.756 13.5167H229.245C229.285 13.9125 229.474 14.2291 229.801 14.4722C230.134 14.7153 230.536 14.8397 231.018 14.8397C231.46 14.8397 231.798 14.7605 232.028 14.5966C232.274 14.4213 232.401 14.1952 232.401 13.9238C232.401 13.5959 232.229 13.3584 231.884 13.2114C231.54 13.0475 230.983 12.8722 230.209 12.68C229.382 12.4878 228.694 12.2956 228.143 12.0921C227.592 11.8772 227.116 11.5437 226.72 11.097C226.318 10.6334 226.123 10.0172 226.123 9.24267C226.123 8.59251 226.301 7.99889 226.662 7.47311C227.035 6.93037 227.569 6.5007 228.275 6.18976C228.992 5.87881 229.836 5.72051 230.817 5.72051C232.263 5.72051 233.399 6.07103 234.226 6.77772C235.063 7.48442 235.545 8.41725 235.672 9.58753H232.406C232.349 9.19178 232.171 8.88084 231.867 8.64905C231.58 8.41725 231.19 8.30418 230.708 8.30418C230.295 8.30418 229.979 8.38333 229.755 8.54728C229.537 8.69427 229.423 8.90911 229.423 9.18048C229.423 9.50838 229.595 9.75149 229.939 9.91544C230.295 10.0794 230.846 10.2433 231.592 10.4016C232.447 10.6165 233.141 10.837 233.68 11.0518C234.22 11.2553 234.685 11.5945 235.086 12.0694C235.499 12.533 235.712 13.1549 235.729 13.9408C235.729 14.6079 235.534 15.2015 235.149 15.7329C234.776 16.2474 234.231 16.6545 233.52 16.9541C232.82 17.2537 231.999 17.4007 231.064 17.4007V17.4064ZM220.895 10.4638C220.895 9.86456 220.689 9.38966 220.275 9.03914C219.862 8.68862 219.346 8.50771 218.726 8.50771C218.106 8.50771 217.63 8.67731 217.217 9.01653C216.815 9.35574 216.568 9.83629 216.471 10.4638H220.889H220.895ZM224.51 11.3797C224.51 11.7076 224.487 12.0468 224.447 12.3973H216.454C216.511 13.104 216.735 13.6468 217.137 14.0256C217.55 14.393 218.055 14.574 218.646 14.574C219.529 14.574 220.138 14.2065 220.482 13.4772H224.241C224.046 14.2234 223.696 14.8962 223.185 15.4898C222.691 16.0891 222.06 16.5527 221.303 16.8919C220.545 17.2311 219.696 17.4007 218.761 17.4007C217.63 17.4007 216.626 17.1633 215.742 16.6884C214.858 16.2135 214.17 15.5351 213.676 14.6531C213.183 13.7712 212.93 12.7422 212.93 11.5606C212.93 10.379 213.171 9.35008 213.653 8.46813C214.147 7.58618 214.835 6.90776 215.719 6.43286C216.603 5.95796 217.613 5.72051 218.755 5.72051C219.897 5.72051 220.861 5.95231 221.727 6.41025C222.594 6.86818 223.271 7.52964 223.753 8.38333C224.246 9.23701 224.499 10.2377 224.499 11.374L224.51 11.3797ZM207.33 14.557H211.955V17.2424H203.795V2.95593H207.33V14.557ZM194.114 7.7784C194.527 7.15651 195.044 6.66465 195.663 6.31413C196.283 5.94665 196.972 5.76574 197.729 5.76574V9.45185H196.759C195.876 9.45185 195.216 9.64407 194.774 10.0229C194.332 10.3903 194.114 11.0405 194.114 11.979V17.2481H190.579V5.89012H194.114V7.78405V7.7784ZM184.496 11.5663C184.496 10.6956 184.25 10.0115 183.75 9.50838C183.268 9.00522 182.677 8.75646 181.972 8.75646C181.266 8.75646 180.669 9.00522 180.175 9.50838C179.693 9.99459 179.452 10.673 179.452 11.5437C179.452 12.4143 179.693 13.104 180.175 13.6185C180.669 14.1217 181.271 14.3704 181.972 14.3704C182.672 14.3704 183.268 14.1217 183.75 13.6185C184.244 13.1153 184.496 12.4313 184.496 11.5606V11.5663ZM175.86 11.5437C175.86 10.379 176.078 9.35008 176.52 8.46813C176.973 7.58618 177.587 6.90776 178.356 6.43286C179.125 5.95796 179.986 5.72051 180.939 5.72051C181.754 5.72051 182.459 5.88447 183.068 6.20672C183.687 6.53462 184.164 6.95864 184.491 7.49007V5.88447H188.026V17.2424H184.491V15.6368C184.146 16.1682 183.664 16.5923 183.045 16.9202C182.436 17.2481 181.731 17.4064 180.916 17.4064C179.98 17.4064 179.125 17.1689 178.356 16.694C177.587 16.2078 176.973 15.5181 176.52 14.6361C176.078 13.7429 175.86 12.7083 175.86 11.5437ZM170.839 17.2424L167.327 12.4821V17.2424H163.792V2.1814H167.327V10.5034L170.816 5.88447H175.177L170.386 11.5832L175.217 17.2424H170.839ZM158.312 10.4638C158.312 9.86456 158.106 9.38966 157.692 9.03914C157.279 8.68862 156.763 8.50771 156.143 8.50771C155.523 8.50771 155.047 8.67731 154.634 9.01653C154.232 9.35574 153.985 9.83629 153.888 10.4638H158.306H158.312ZM161.927 11.3797C161.927 11.7076 161.904 12.0468 161.864 12.3973H153.871C153.928 13.104 154.152 13.6468 154.553 14.0256C154.967 14.393 155.472 14.574 156.063 14.574C156.946 14.574 157.555 14.2065 157.899 13.4772H161.658C161.462 14.2234 161.112 14.8962 160.602 15.4898C160.108 16.0891 159.477 16.5527 158.72 16.8919C157.962 17.2311 157.113 17.4007 156.177 17.4007C155.047 17.4007 154.043 17.1633 153.159 16.6884C152.275 16.2135 151.587 15.5351 151.093 14.6531C150.6 13.7712 150.347 12.7422 150.347 11.5606C150.347 10.379 150.588 9.35008 151.07 8.46813C151.564 7.58618 152.252 6.90776 153.136 6.43286C154.02 5.95796 155.03 5.72051 156.172 5.72051C157.314 5.72051 158.278 5.95231 159.144 6.41025C160.011 6.86818 160.688 7.52964 161.17 8.38333C161.663 9.23701 161.916 10.2377 161.916 11.374L161.927 11.3797ZM148.522 2.95593V17.2424H144.988V8.67166L141.745 17.2424H138.893L135.628 8.6547V17.2424H132.093V2.95593H136.265L140.334 12.8496L144.362 2.95593H148.517H148.522ZM121.632 11.5663C121.632 10.6956 121.385 10.0115 120.886 9.50838C120.404 9.00522 119.813 8.75646 119.107 8.75646C118.401 8.75646 117.805 9.00522 117.311 9.50838C116.829 9.99459 116.588 10.673 116.588 11.5437C116.588 12.4143 116.829 13.104 117.311 13.6185C117.805 14.1217 118.407 14.3704 119.107 14.3704C119.807 14.3704 120.404 14.1217 120.886 13.6185C121.38 13.1153 121.632 12.4313 121.632 11.5606V11.5663ZM112.996 11.5437C112.996 10.379 113.214 9.35008 113.656 8.46813C114.109 7.58618 114.723 6.90776 115.492 6.43286C116.261 5.95796 117.122 5.72051 118.074 5.72051C118.889 5.72051 119.595 5.88447 120.203 6.20672C120.823 6.53462 121.299 6.95864 121.626 7.49007V5.88447H125.161V17.2424H121.626V15.6368C121.282 16.1682 120.8 16.5923 120.18 16.9202C119.572 17.2481 118.866 17.4064 118.051 17.4064C117.116 17.4064 116.261 17.1689 115.492 16.694C114.723 16.2078 114.109 15.5181 113.656 14.6361C113.214 13.7429 112.996 12.7083 112.996 11.5437ZM106.804 5.76574C108.153 5.76574 109.226 6.20106 110.029 7.06606C110.844 7.91974 111.246 9.10133 111.246 10.6052V17.2424H107.734V11.0744C107.734 10.3168 107.533 9.72322 107.137 9.30486C106.735 8.88649 106.202 8.67166 105.524 8.67166C104.847 8.67166 104.314 8.88084 103.912 9.30486C103.51 9.72322 103.315 10.3168 103.315 11.0744V17.2424H99.7803V5.88447H103.315V7.38831C103.671 6.88514 104.153 6.49505 104.761 6.20672C105.37 5.90708 106.047 5.76009 106.804 5.76009V5.76574ZM93.6919 11.5663C93.6919 10.6956 93.4451 10.0115 92.9459 9.50838C92.4638 9.00522 91.8728 8.75646 91.167 8.75646C90.4611 8.75646 89.8643 9.00522 89.3708 9.50838C88.8888 9.99459 88.6478 10.673 88.6478 11.5437C88.6478 12.4143 88.8888 13.104 89.3708 13.6185C89.8643 14.1217 90.4669 14.3704 91.167 14.3704C91.867 14.3704 92.4638 14.1217 92.9459 13.6185C93.4394 13.1153 93.6919 12.4313 93.6919 11.5606V11.5663ZM85.0556 11.5437C85.0556 10.379 85.2736 9.35008 85.7155 8.46813C86.1688 7.58618 86.7828 6.90776 87.5518 6.43286C88.3207 5.95796 89.1815 5.72051 90.134 5.72051C90.9489 5.72051 91.6547 5.88447 92.263 6.20672C92.8827 6.53462 93.359 6.95864 93.6861 7.49007V5.88447H97.221V17.2424H93.6861V15.6368C93.3418 16.1682 92.8598 16.5923 92.24 16.9202C91.6318 17.2481 90.9259 17.4064 90.1111 17.4064C89.1757 17.4064 88.3207 17.1689 87.5518 16.694C86.7828 16.2078 86.1688 15.5181 85.7155 14.6361C85.2736 13.7429 85.0556 12.7083 85.0556 11.5437ZM78.9269 5.76574C80.2468 5.76574 81.3084 6.20106 82.106 7.06606C82.9036 7.91974 83.3053 9.10133 83.3053 10.6052V17.2424H79.7934V11.0744C79.7934 10.3168 79.5926 9.72322 79.1966 9.30486C78.7949 8.88649 78.2613 8.67166 77.5841 8.67166C76.907 8.67166 76.3733 8.88084 75.9716 9.30486C75.57 9.72322 75.3749 10.3168 75.3749 11.0744V17.2424H71.84V2.1814H75.3749V7.41092C75.7306 6.90776 76.2241 6.50635 76.8439 6.21237C77.4636 5.91839 78.158 5.76574 78.9327 5.76574H78.9269ZM65.7515 11.5663C65.7515 10.6956 65.5048 10.0115 65.0055 9.50838C64.5235 9.00522 63.9325 8.75646 63.2266 8.75646C62.5208 8.75646 61.924 9.00522 61.4305 9.50838C60.9485 9.99459 60.7075 10.673 60.7075 11.5437C60.7075 12.4143 60.9485 13.104 61.4305 13.6185C61.924 14.1217 62.5266 14.3704 63.2266 14.3704C63.9267 14.3704 64.5235 14.1217 65.0055 13.6185C65.499 13.1153 65.7515 12.4313 65.7515 11.5606V11.5663ZM57.1152 11.5437C57.1152 10.379 57.3333 9.35008 57.7752 8.46813C58.2285 7.58618 58.8425 6.90776 59.6114 6.43286C60.3804 5.95796 61.2411 5.72051 62.1937 5.72051C63.0086 5.72051 63.7144 5.88447 64.3227 6.20672C64.9424 6.53462 65.4187 6.95864 65.7458 7.49007V5.88447H69.2807V17.2424H65.7458V15.6368C65.4015 16.1682 64.9195 16.5923 64.2997 16.9202C63.6915 17.2481 62.9856 17.4064 62.1708 17.4064C61.2354 17.4064 60.3804 17.1689 59.6114 16.694C58.8425 16.2078 58.2285 15.5181 57.7752 14.6361C57.3333 13.7429 57.1152 12.7083 57.1152 11.5437ZM56.0479 2.95593L52.2663 17.2424H47.9912L45.6786 7.84059L43.2799 17.2424H39.0048L35.3265 2.95593H39.1081L41.1969 13.3584L43.7792 2.95593H47.6641L50.1431 13.3584L52.2491 2.95593H56.0479ZM27.5337 17.4064C26.914 17.4064 26.4033 17.2311 26.0073 16.8749C25.6228 16.5075 25.4277 16.0608 25.4277 15.5294C25.4277 14.998 25.6228 14.5344 26.0073 14.1669C26.409 13.7994 26.914 13.6185 27.5337 13.6185C28.1535 13.6185 28.6355 13.7994 29.02 14.1669C29.4217 14.5344 29.6168 14.9867 29.6168 15.5294C29.6168 16.0721 29.4159 16.5075 29.02 16.8749C28.6355 17.2255 28.1363 17.4064 27.5337 17.4064ZM24.1079 2.95593V5.74313H20.2632V17.2424H16.7283V5.74313H12.8836V2.95593H24.1022H24.1079ZM6.23848 9.34443C6.91561 9.34443 7.41485 9.18613 7.74768 8.87519C8.08051 8.56424 8.24118 8.12327 8.24118 7.55226C8.24118 6.98125 8.07477 6.54028 7.74768 6.22933C7.41485 5.91839 6.91561 5.76009 6.23848 5.76009H4.31611V9.34443H6.23848ZM11.8392 7.55791C11.8392 8.38333 11.6441 9.14656 11.2596 9.83629C10.8751 10.5147 10.2841 11.0631 9.48068 11.4871C8.67731 11.9111 7.6903 12.1203 6.50819 12.1203H4.31611V17.2481H0.78125V2.96159H6.50245C7.66161 2.96159 8.63714 3.15946 9.43477 3.54956C10.2324 3.9453 10.8349 4.48804 11.2309 5.17777C11.6326 5.86751 11.8277 6.66465 11.8277 7.55791H11.8392Z" fill="#F1E8DF"/>
</svg>
